<svg xmlns="http://www.w3.org/2000/svg" viewBox="0 0 90 90"><circle cx="45" cy="45" r="45" fill="#5ab7b2"/><path d="M40.29 51.65a198.28 198.28 0 0 1-22.33 4.75s-3.83 1.06-2.85 7.13c0 0 1 6.92 6 5.86 0 0 13.93-8.87 20.11-12.67l-3.17 15.83s1.65 5.86 7.4 5.86 8-3.64 8-6.81L50.6 55.93 68.49 68.6s7.44 4 7.92-6.49c0 0-.16-6-5.38-6.17l-22.48-4.91z" fill="#603913"/><path d="M30 28.85s-9.5 9.5-4 19.16c0 0 4.75 10.13 19 10.13 0 0 15.08.66 19.48-11.08 0 0 1.9-7-1.27-12.82 0 0-2.22-4.91.16-7.92 0 0-5.07.79-5.7 3.8 0 0-5.11-5.23-1.61-11.87 0 0-3.62-.16-6.79 4 0 0 1.27-10.45-7.28-12.83 0 0 5.38 11.72-3.8 19 0 0-1.43-6.33-5.07-7.28 0 0 2.38 10.15-.48 12.68.05-.05-2.48 1.52-2.64-4.97z" fill="#e24301"/><path d="M34.75 40.73s.63 3.8-.95 6c0 0-2.22 6 5.86 7.92 0 0 9.66 1.07 13.46-1.44a6.12 6.12 0 0 0 2.69-7.58s-.79-5.38 1.11-6.18-2.06-.16-3.33 1.58c0 0 .32-4.91-1.11-6.17 0 0-.79 3.64-1.9 3.8 0 0-3.33-3.48-1.74-6.49 0 0-2 .32-4.15 3.64 0 0-1.46-2.37 0-7.44 0 0-5.19 3.48-5.35 8.87a1.7 1.7 0 0 1-1.74-1.62 10.35 10.35 0 0 0 .79 6s-.48 1.32-3.64-.89z" fill="#f9be00"/><ellipse cx="258.61" cy="235.37" rx="3.78" ry="5.38" transform="rotate(-7.32 -1209.485 2014.92)" fill="#c8b783"/><ellipse cx="309.96" cy="235.54" rx="5.38" ry="4.2" transform="rotate(-85.58 97.426 278.205)" fill="#c8b783"/><ellipse cx="45.99" cy="71.64" rx="6.33" ry="5.79" fill="#c8b783"/><path d="M21.64 57.76a2.91 2.91 0 0 0-1.71-.19 2 2 0 0 0-1.29 1 6.79 6.79 0 0 0-.74 3.32 6.62 6.62 0 0 0 .56 3.3 2.09 2.09 0 0 0 1.06 1 1.15 1.15 0 0 0 1.24-.37 3.71 3.71 0 0 0 .76-1.4 6.64 6.64 0 0 0 .32-1.65 6 6 0 0 0-.1-1.67 1.84 1.84 0 0 0-.7-1.25 1 1 0 0 0-1.12.51 3.83 3.83 0 0 0-.55 1.55 4.63 4.63 0 0 0 0 1.68 1 1 0 0 0 .33.61.58.58 0 0 0 .56-.25 5 5 0 0 0 .75-1.58.83.83 0 0 0-.87-1.15 1.07 1.07 0 0 1 .86.27 1.13 1.13 0 0 1 .2.91 5.24 5.24 0 0 1-.64 1.73 1.53 1.53 0 0 1-.38.33.64.64 0 0 1-.59.05 1.31 1.31 0 0 1-.58-.86 5.09 5.09 0 0 1-.12-1.85 4.36 4.36 0 0 1 .56-1.8 2 2 0 0 1 .75-.72 1.3 1.3 0 0 1 1.13-.05 2.39 2.39 0 0 1 1.09 1.69 6.7 6.7 0 0 1 .15 1.86 7.38 7.38 0 0 1-.32 1.84 4.35 4.35 0 0 1-1 1.67 1.87 1.87 0 0 1-2 .52 2.75 2.75 0 0 1-1.42-1.38 5.4 5.4 0 0 1-.53-1.81 8.93 8.93 0 0 1 0-1.83 10.64 10.64 0 0 1 .28-1.8 4.85 4.85 0 0 1 .73-1.69 2.31 2.31 0 0 1 1.56-1 2.79 2.79 0 0 1 1.77.46zM46.64 65.85a7.06 7.06 0 0 0-1.66.53 6 6 0 0 0-1.69 1.08 4.21 4.21 0 0 0-1.25 2.13 4.44 4.44 0 0 0-.1 1.4 8.29 8.29 0 0 0 .35 1.47 4.9 4.9 0 0 0 1.81 2.62 3.9 3.9 0 0 0 3.27.33 3.28 3.28 0 0 0 1.44-.9 3.21 3.21 0 0 0 .73-1.53 6.11 6.11 0 0 0 .06-1.79 8.35 8.35 0 0 0-.14-.91 3.06 3.06 0 0 0-.25-.83 2.56 2.56 0 0 0-1-1.24 1.62 1.62 0 0 0-1.46.05 4.39 4.39 0 0 0-.7.42 7 7 0 0 0-.64.54 3.85 3.85 0 0 0-.91 1.26 2 2 0 0 0 .55 2.5 1.71 1.71 0 0 0 2.18-.14 2.7 2.7 0 0 0 .76-1.74 1 1 0 0 0-.48-1.05.85.85 0 0 0-.45 0 .87.87 0 0 1 .46 0 1 1 0 0 1 .61 1.09 2.89 2.89 0 0 1-.71 1.92 2 2 0 0 1-2.6.3 2.25 2.25 0 0 1-.94-1.32 2.85 2.85 0 0 1 .11-1.73 4.44 4.44 0 0 1 1-1.5 5.94 5.94 0 0 1 .68-.6 4.94 4.94 0 0 1 .82-.51 2.29 2.29 0 0 1 2-.07 3.22 3.22 0 0 1 1.36 1.55 3.84 3.84 0 0 1 .31 1 9 9 0 0 1 .16 1 6.43 6.43 0 0 1-.05 2 3.75 3.75 0 0 1-2.69 2.94 4.56 4.56 0 0 1-3.83-.45 5.25 5.25 0 0 1-2-3 8.8 8.8 0 0 1-.3-1.62 4.83 4.83 0 0 1 .17-1.56 4.31 4.31 0 0 1 1.48-2.23 6.21 6.21 0 0 1 1.79-1 7.27 7.27 0 0 1 1.26-.34c.33-.06.49-.07.49-.07zM71.84 57.61a1.9 1.9 0 0 0-.28 0 2.29 2.29 0 0 0-.71.3 2.76 2.76 0 0 0-.81.86 5.76 5.76 0 0 0-.61 1.42 7.82 7.82 0 0 0-.09 3.81 3 3 0 0 0 .92 1.68 1.61 1.61 0 0 0 1.73 0l.22-.11.24-.14a2.41 2.41 0 0 0 .37-.3 2.44 2.44 0 0 0 .54-.81 2.9 2.9 0 0 0 .09-1.91 1.89 1.89 0 0 0-1.1-1.26l-.2-.06h-.19a1.34 1.34 0 0 0-.39 0 .62.62 0 0 0-.49.34 1.6 1.6 0 0 0 .17 1.31.9.9 0 0 0 .85.56 1.07 1.07 0 0 0 .6-.42l.16-.23-.11.26a1.09 1.09 0 0 1-.6.58 1.18 1.18 0 0 1-1.22-.53 1.89 1.89 0 0 1-.39-1.75 1.24 1.24 0 0 1 .88-.77 2.13 2.13 0 0 1 .57-.07H72.28a2.1 2.1 0 0 1 .29.06 2.58 2.58 0 0 1 1.73 1.7 3.64 3.64 0 0 1 0 2.56 3.43 3.43 0 0 1-.74 1.14 3.35 3.35 0 0 1-.54.45l-.26.16-.31.15a3.29 3.29 0 0 1-1.35.31 2.22 2.22 0 0 1-1.38-.48 3.76 3.76 0 0 1-1.19-2.26 7.25 7.25 0 0 1 0-2.24 8.18 8.18 0 0 1 .47-1.93 4 4 0 0 1 1.85-2.26 2.12 2.12 0 0 1 .99-.12z" fill="#603913"/><path d="M21.92 58.15l-1.63 3.56 3.05-2.6a14.13 14.13 0 0 0-1.42-.96zM19.9 65.21l1.22 3.16 1.47-1.13-2.69-2.03M72.13 57.45l-.22 4.6 1.75-4.26-1.53-.34M67.04 65.18l3.37-1.1-2.96 3-.41-1.9M41.08 75.98l3.16-2.48-1.58 3.76-1.58-1.28" fill="#603913"/></svg>